<svg preserveAspectRatio="none" width="100%" height="100%" overflow="visible" style="display: block;" viewBox="0 0 12.3565 11" fill="none" xmlns="http://www.w3.org/2000/svg">
<path id="Avalanche (AVAX)" fill-rule="evenodd" clip-rule="evenodd" d="M6.70009 0.391385C6.39797 -0.130462 5.91732 -0.130462 5.6152 0.391385L0.128944 10.0524C-0.173178 10.5811 0.0740124 11 0.678256 11H3.43168C3.98786 10.9656 4.48911 10.6704 4.79123 10.2035L8.1077 4.45629C8.34803 3.96191 8.34803 3.37827 8.1077 2.88389L7.11894 1.14669L6.70009 0.391385ZM10.3461 6.74974C10.044 6.22789 9.55649 6.22789 9.25437 6.74974L7.33864 10.0525C7.04338 10.5743 7.29058 11 7.88795 11H11.6782C12.2824 11 12.5296 10.5743 12.2275 10.0525L10.3461 6.74974Z" fill="var(--fill-0, white)"/>
</svg>
