<svg preserveAspectRatio="none" width="100%" height="100%" overflow="visible" style="display: block;" viewBox="0 0 10.1098 9.00003" fill="none" xmlns="http://www.w3.org/2000/svg">
<path id="Avalanche (AVAX)" fill-rule="evenodd" clip-rule="evenodd" d="M5.48189 0.320224C5.2347 -0.106741 4.84144 -0.106741 4.59425 0.320224L0.105499 8.2247C-0.141691 8.65728 0.0605556 8.99998 0.554936 8.99998H2.80774C3.2628 8.97189 3.67291 8.73032 3.9201 8.34829L6.63357 3.64606C6.8302 3.24156 6.8302 2.76404 6.63357 2.35954L5.82459 0.9382L5.48189 0.320224ZM8.46501 5.52251C8.21782 5.09555 7.81894 5.09555 7.57175 5.52251L6.00434 8.22475C5.76277 8.65172 5.96502 9.00003 6.45378 9.00003H9.5549C10.0493 9.00003 10.2515 8.65172 10.0043 8.22475L8.46501 5.52251Z" fill="var(--fill-0, white)"/>
</svg>
