<svg preserveAspectRatio="none" width="100%" height="100%" overflow="visible" style="display: block;" viewBox="0 0 11.2987 10.8888" fill="none" xmlns="http://www.w3.org/2000/svg">
<g id="Vector">
<path d="M5.64927 7.44443C6.75384 7.44443 7.64927 6.549 7.64927 5.44443C7.64927 4.33986 6.75384 3.44443 5.64927 3.44443C4.5447 3.44443 3.64927 4.33986 3.64927 5.44443C3.64927 6.549 4.5447 7.44443 5.64927 7.44443Z" stroke="var(--stroke-0, #858585)" stroke-width="1.3" stroke-linecap="square"/>
<path d="M9.23282 3.41445L9.19993 3.35753C9.10924 3.20052 9.06294 3.02181 9.06599 2.84051L9.08095 1.9511C9.08401 1.76934 8.98817 1.60024 8.83067 1.50947L7.46233 0.720968C7.30522 0.630432 7.11141 0.632055 6.95583 0.725208L6.19629 1.18C6.04105 1.27295 5.8635 1.32204 5.68257 1.32204H5.61672C5.43539 1.32204 5.25747 1.27274 5.102 1.1794L4.33897 0.721319C4.18285 0.627593 3.98812 0.626152 3.83063 0.717557L2.46663 1.5092C2.30989 1.60018 2.21464 1.76885 2.21769 1.95006L2.23267 2.84051C2.23572 3.02181 2.18942 3.20052 2.09873 3.35753L2.06628 3.41369C1.97554 3.57079 1.84377 3.70024 1.68509 3.78817L0.907642 4.21901C0.748294 4.30731 0.649587 4.4753 0.650001 4.65748L0.653581 6.23339C0.653992 6.41446 0.752271 6.58117 0.910507 6.66919L1.68422 7.09961C1.84344 7.18819 1.97544 7.31859 2.06595 7.47672L2.10072 7.53745C2.19014 7.69367 2.23573 7.87113 2.23269 8.0511L2.21773 8.93767C2.21466 9.11944 2.31049 9.28856 2.46801 9.37933L3.83633 10.1678C3.99344 10.2584 4.18726 10.2567 4.34283 10.1636L5.10237 9.70879C5.25761 9.61584 5.43516 9.56674 5.61609 9.56674H5.68194C5.86327 9.56674 6.04119 9.61605 6.19666 9.70938L6.95969 10.1675C7.11581 10.2612 7.31054 10.2626 7.46804 10.1712L8.83203 9.37958C8.98877 9.28861 9.08402 9.11994 9.08097 8.93873L9.06599 8.04828C9.06294 7.86698 9.10924 7.68827 9.19993 7.53126L9.23238 7.4751C9.32312 7.318 9.45489 7.18855 9.61358 7.10062L10.391 6.66978C10.5504 6.58148 10.6491 6.41349 10.6487 6.23131L10.6451 4.6554C10.6447 4.47432 10.5464 4.30762 10.3882 4.21959L9.61259 3.78814C9.45453 3.70021 9.32328 3.57107 9.23282 3.41445Z" stroke="var(--stroke-0, #858585)" stroke-width="1.3" stroke-linecap="square"/>
</g>
</svg>
