<svg preserveAspectRatio="none" width="100%" height="100%" overflow="visible" style="display: block;" viewBox="0 0 18 18" fill="none" xmlns="http://www.w3.org/2000/svg">
<g id="Group">
<path id="Vector" d="M0 9C-1.76116e-08 7.8181 0.232792 6.64778 0.685084 5.55585C1.13738 4.46392 1.80031 3.47177 2.63604 2.63604C3.47177 1.80031 4.46392 1.13738 5.55585 0.685084C6.64778 0.232792 7.8181 0 9 0C10.1819 0 11.3522 0.232792 12.4442 0.685084C13.5361 1.13738 14.5282 1.80031 15.364 2.63604C16.1997 3.47177 16.8626 4.46392 17.3149 5.55585C17.7672 6.64778 18 7.8181 18 9C18 11.3869 17.0518 13.6761 15.364 15.364C13.6761 17.0518 11.3869 18 9 18C6.61305 18 4.32387 17.0518 2.63604 15.364C0.948211 13.6761 3.55683e-08 11.3869 0 9Z" fill="var(--fill-0, #0E5BFF)"/>
<path id="Vector_2" fill-rule="evenodd" clip-rule="evenodd" d="M9 15.375C10.6908 15.375 12.3123 14.7033 13.5078 13.5078C14.7033 12.3123 15.375 10.6908 15.375 9C15.375 7.30924 14.7033 5.68774 13.5078 4.49219C12.3123 3.29665 10.6908 2.625 9 2.625C7.30924 2.625 5.68774 3.29665 4.49219 4.49219C3.29665 5.68774 2.625 7.30924 2.625 9C2.625 10.6908 3.29665 12.3123 4.49219 13.5078C5.68774 14.7033 7.30924 15.375 9 15.375ZM8.25 7.125C7.629 7.125 7.125 7.629 7.125 8.25V9.75C7.125 10.371 7.629 10.875 8.25 10.875H9.75C10.371 10.875 10.875 10.371 10.875 9.75V8.25C10.875 7.629 10.371 7.125 9.75 7.125H8.25Z" fill="var(--fill-0, white)"/>
</g>
</svg>
