<svg preserveAspectRatio="none" width="100%" height="100%" overflow="visible" style="display: block;" viewBox="0 0 151.468 168.885" fill="none" xmlns="http://www.w3.org/2000/svg">
<g id="Ellipse 7">
<path d="M142.759 -3.21406e-08C102.775 6.5934 66.4476 27.2121 40.2874 58.1601C14.1273 89.1082 -0.15485 128.362 0.00126643 168.885L53.5279 168.679C53.4208 140.878 63.2192 113.947 81.1666 92.715C99.114 71.4829 124.037 57.3372 151.468 52.8138L142.759 -3.21406e-08Z" fill="var(--fill-0, #A7C4EC)"/>
<path d="M142.759 -3.21406e-08C102.775 6.5934 66.4476 27.2121 40.2874 58.1601C14.1273 89.1082 -0.15485 128.362 0.00126643 168.885L53.5279 168.679C53.4208 140.878 63.2192 113.947 81.1666 92.715C99.114 71.4829 124.037 57.3372 151.468 52.8138L142.759 -3.21406e-08Z" fill="var(--fill-1, #0575F3)"/>
</g>
</svg>
