<svg preserveAspectRatio="none" width="100%" height="100%" overflow="visible" style="display: block;" viewBox="0 0 18 16.2015" fill="none" xmlns="http://www.w3.org/2000/svg">
<g id="Group">
<path id="Vector" d="M16.628 8.089L17.438 7.159L17.085 6.907L17.648 6.402L17.214 6.081L17.777 5.668L17.414 5.392L18 2.592L17.109 0M17.109 0L11.386 2.077H6.614L0.89 0L0 2.593L0.598 5.393L0.223 5.668L0.797 6.081L0.364 6.402L0.926 6.907L0.575 7.159L1.384 8.089L0.152 11.806L1.29 15.603L5.289 14.525L6.063 15.145L7.646 16.2H10.354L11.938 15.144L12.711 14.525L16.721 15.603L17.871 11.806L16.628 8.089" fill="var(--fill-0, #F5841F)"/>
<path id="Vector_2" d="M17.1093 0L10.0853 5.06L11.3863 2.077L17.1093 0ZM0.891344 0L7.85734 5.106L6.61434 2.076L0.891344 0ZM14.5883 11.737L12.7113 14.513L16.7213 15.592L17.8713 11.794L14.5883 11.737ZM0.152344 11.794L1.29034 15.592L5.28934 14.513L3.42434 11.737L0.152344 11.794Z" fill="var(--fill-0, #E27625)"/>
<path id="Vector_3" d="M5.07829 7.03332L3.96429 8.67332L7.92729 8.84632L7.79829 4.69332L5.07829 7.03332ZM12.9343 7.03332L10.1673 4.64732L10.0853 8.84632L14.0483 8.67432L12.9343 7.03332ZM5.28928 14.5143L7.69329 13.3893L5.61729 11.8293L5.28928 14.5143ZM10.3203 13.3903L12.7113 14.5143L12.3833 11.8293L10.3203 13.3903Z" fill="var(--fill-0, #E27625)"/>
<path id="Vector_4" d="M12.7113 14.5145L10.3193 13.3895L10.5193 14.9045L10.4953 15.5465L12.7113 14.5145ZM5.28934 14.5145L7.51734 15.5465L7.50534 14.9045L7.69334 13.3895L5.28934 14.5145Z" fill="var(--fill-0, #D7C1B3)"/>
<path id="Vector_5" d="M7.55259 10.8201L5.57059 10.2571L6.97759 9.62612L7.55259 10.8201ZM10.4486 10.8201L11.0346 9.62612L12.4426 10.2571L10.4486 10.8201Z" fill="var(--fill-0, #2F343B)"/>
<path id="Vector_6" d="M5.28855 14.5135L5.63955 11.7365L3.42355 11.7935L5.28855 14.5135ZM12.3705 11.7365L12.7105 14.5125L14.5875 11.7935L12.3705 11.7365ZM14.0475 8.67355L10.0845 8.84555L10.4475 10.8185L11.0335 9.62555L12.4415 10.2565L14.0475 8.67355ZM5.56955 10.2565L6.97655 9.62555L7.55155 10.8185L7.92655 8.84555L3.96355 8.67355L5.56955 10.2565Z" fill="var(--fill-0, #CC6228)"/>
<path id="Vector_7" d="M3.96429 8.67355L5.61729 11.8285L5.57029 10.2565L3.96429 8.67355ZM12.4423 10.2565L12.3833 11.8285L14.0483 8.67355L12.4423 10.2565ZM7.92729 8.84555L7.55229 10.8185L8.02129 13.1585L8.12629 10.0845L7.92729 8.84555ZM10.0853 8.84555L9.88529 10.0725L9.97929 13.1595L10.4493 10.8195L10.0853 8.84555Z" fill="var(--fill-0, #E27625)"/>
<path id="Vector_8" d="M10.4486 10.8203L9.97959 13.1603L10.3196 13.3903L12.3836 11.8293L12.4426 10.2573L10.4486 10.8203ZM5.57059 10.2573L5.61759 11.8293L7.69359 13.3893L8.02159 13.1593L7.55159 10.8193L5.57059 10.2573Z" fill="var(--fill-0, #F5841F)"/>
<path id="Vector_9" d="M10.4953 15.5475L10.5193 14.9055L10.3313 14.7555H7.66934L7.50534 14.9055L7.51734 15.5475L5.28934 14.5145L6.06334 15.1345L7.64634 16.2015H10.3543L11.9383 15.1345L12.7113 14.5145L10.4953 15.5475Z" fill="var(--fill-0, #C0AD9E)"/>
<path id="Vector_10" d="M10.32 13.3902L9.98002 13.1602H8.02002L7.69302 13.3902L7.50502 14.9042L7.66902 14.7542H10.331L10.519 14.9042L10.32 13.3902Z" fill="var(--fill-0, #2F343B)"/>
<path id="Vector_11" d="M17.414 5.392L18 2.592L17.109 0L10.319 4.888L12.934 7.033L16.628 8.089L17.438 7.159L17.085 6.907L17.648 6.413L17.214 6.081L17.777 5.668L17.414 5.392ZM0 2.593L0.598 5.393L0.223 5.668L0.786 6.092L0.352 6.413L0.915 6.907L0.563 7.159L1.383 8.089L5.078 7.033L7.693 4.888L0.89 0L0 2.593Z" fill="var(--fill-0, #763E1A)"/>
<path id="Vector_12" d="M16.6283 8.08789L12.9343 7.03189L14.0483 8.67189L12.3833 11.8279L14.5883 11.7929H17.8713L16.6283 8.08789ZM5.07834 7.03189L1.38434 8.08789L0.152344 11.7929H3.42434L5.61734 11.8279L3.96434 8.67289L5.07834 7.03189ZM10.0853 8.84489L10.3193 4.88689L11.3863 2.07589H6.61434L7.69334 4.88589L7.92734 8.84489L8.02134 10.0839V13.1589H9.97934L9.99134 10.0839L10.0853 8.84489Z" fill="var(--fill-0, #F5841F)"/>
</g>
</svg>
