<svg preserveAspectRatio="none" width="100%" height="100%" overflow="visible" style="display: block;" viewBox="0 0 18 14.4" fill="none" xmlns="http://www.w3.org/2000/svg">
<path id="Vector" d="M2.13 14.4C4.427 14.4 6.153 12.48 7.183 10.964C7.06019 11.2813 6.99418 11.6178 6.988 11.958C6.988 12.843 7.518 13.474 8.562 13.474C9.995 13.474 11.527 12.266 12.32 10.964C12.2692 11.1342 12.2413 11.3104 12.237 11.488C12.237 12.105 12.599 12.494 13.337 12.494C15.661 12.494 18 8.535 18 5.073C18 2.375 16.58 0 13.016 0C6.752 0 0 7.354 0 12.105C0 13.971 1.044 14.4 2.13 14.4ZM10.859 4.778C10.859 4.107 11.249 3.637 11.819 3.637C12.376 3.637 12.766 4.107 12.766 4.777C12.766 5.449 12.376 5.932 11.819 5.932C11.249 5.932 10.859 5.449 10.859 4.778ZM13.838 4.778C13.838 4.107 14.228 3.637 14.798 3.637C15.355 3.637 15.745 4.107 15.745 4.777C15.745 5.449 15.355 5.932 14.798 5.932C14.228 5.932 13.838 5.449 13.838 4.778Z" fill="var(--fill-0, #AB9FF2)"/>
</svg>
