<svg preserveAspectRatio="none" width="100%" height="100%" overflow="visible" style="display: block;" viewBox="0 0 22 22" fill="none" xmlns="http://www.w3.org/2000/svg">
<g id="Frame">
<g id="Vector">
<path d="M11 0.197436C16.9682 0.197436 21.8026 5.03179 21.8026 11C21.8026 16.9626 16.9682 21.8026 11 21.8026C5.03179 21.8026 0.197436 16.9626 0.197436 11C0.197436 5.03179 5.03179 0.197436 11 0.197436Z" fill="#111111"/>
<path d="M11 0C4.92462 0 0 4.92462 0 11C0 17.0754 4.92462 22 11 22C17.0754 22 22 17.0754 22 11C22 4.92462 17.0754 0 11 0Z" fill="url(#paint0_radial_0_220)" fill-opacity="0.7"/>
<path fill-rule="evenodd" clip-rule="evenodd" d="M9.24 1.94615C4.99231 2.7641 1.78256 6.5041 1.78256 10.9887C1.78256 15.4733 4.99231 19.2133 9.24 20.0313V19.1682C5.46051 18.3615 2.62872 15.0051 2.62872 10.9887C2.62872 6.97231 5.46051 3.6159 9.24 2.80923V1.94615ZM12.76 2.81487V1.9518C17.0021 2.77538 20.2005 6.50974 20.2005 10.9887C20.2005 15.4677 17.0021 19.2021 12.76 20.0256V19.1626C16.5282 18.3503 19.3544 14.9995 19.3544 10.9887C19.3544 6.97795 16.5282 3.62718 12.76 2.81487Z" fill="var(--fill-0, white)"/>
<path d="M12.3031 10.6841C13.0082 10.8195 13.5497 11.079 13.939 11.4569C14.3282 11.8292 14.52 12.3087 14.52 12.8897V13.8092C14.52 14.5087 14.2662 15.0728 13.7641 15.5015C13.2621 15.9246 12.5964 16.1333 11.7785 16.1333H11.4964V17.5944H10.5262V16.1333H10.2272C9.68564 16.1333 9.2118 16.0149 8.79436 15.7723C8.38257 15.5241 8.05539 15.18 7.82411 14.74C7.59847 14.2887 7.48565 13.7754 7.48565 13.1887H8.4559C8.4559 13.781 8.61949 14.2662 8.94103 14.6385C9.27385 14.9995 9.71385 15.1856 10.2497 15.1856H11.7503C12.2805 15.1856 12.7092 15.0615 13.0364 14.8133C13.358 14.5538 13.5215 14.221 13.5215 13.8092V12.8897C13.5215 12.5626 13.3974 12.2862 13.1549 12.0549C12.918 11.8236 12.5964 11.6769 12.1846 11.6092L9.75334 11.1805C9.07077 11.0564 8.53488 10.7969 8.15693 10.4077C7.77898 10.0128 7.58718 9.52205 7.58718 8.92974V8.15692C7.58718 7.45744 7.82975 6.90462 8.31488 6.49282C8.81129 6.06974 9.46564 5.86103 10.2723 5.86103H10.5149V4.4H11.4851V5.86103H11.7954C12.5626 5.86103 13.1774 6.10923 13.6456 6.60564C14.1138 7.09077 14.3508 7.73949 14.3508 8.54051H13.3805C13.3805 8.0159 13.2339 7.59282 12.9462 7.27692C12.6585 6.96103 12.2749 6.80308 11.7954 6.80308H10.2667C9.75334 6.80308 9.34154 6.92718 9.03693 7.17538C8.73231 7.41231 8.58 7.73949 8.58 8.15128V8.9241C8.58 9.25692 8.69282 9.53897 8.91847 9.77026C9.15539 10.0015 9.47129 10.1538 9.87744 10.2272L12.3031 10.6841Z" fill="var(--fill-0, white)"/>
</g>
</g>
<defs>
<radialGradient id="paint0_radial_0_220" cx="0" cy="0" r="1" gradientUnits="userSpaceOnUse" gradientTransform="translate(11.0217 3.20997) rotate(90) scale(23.1931 16.3256)">
<stop offset="0.03125" stop-color="#3A3A3A"/>
<stop offset="1" stop-color="#1C1C1C"/>
</radialGradient>
</defs>
</svg>
