<svg preserveAspectRatio="none" width="100%" height="100%" overflow="visible" style="display: block;" viewBox="0 0 24 14.7086" fill="none" xmlns="http://www.w3.org/2000/svg">
<path id="Vector" d="M4.91302 2.87325C8.82802 -0.95775 15.173 -0.95775 19.087 2.87325L19.558 3.33425C19.6045 3.37928 19.6415 3.43321 19.6668 3.49282C19.692 3.55243 19.705 3.61651 19.705 3.68125C19.705 3.74599 19.692 3.81007 19.6668 3.86968C19.6415 3.92929 19.6045 3.98322 19.558 4.02825L17.947 5.60525C17.9238 5.62853 17.8962 5.647 17.8658 5.65961C17.8355 5.67221 17.8029 5.6787 17.77 5.6787C17.7371 5.6787 17.7046 5.67221 17.6742 5.65961C17.6438 5.647 17.6162 5.62853 17.593 5.60525L16.944 4.97125C14.214 2.29825 9.78702 2.29825 7.05702 4.97125L6.36302 5.65125C6.31545 5.69737 6.25179 5.72317 6.18552 5.72317C6.11926 5.72317 6.0556 5.69737 6.00802 5.65125L4.39702 4.07325C4.35029 4.02845 4.3131 3.97466 4.2877 3.91511C4.26229 3.85556 4.2492 3.79149 4.2492 3.72675C4.2492 3.66201 4.26229 3.59794 4.2877 3.53839C4.3131 3.47884 4.35029 3.42505 4.39702 3.38025L4.91302 2.87325ZM22.419 6.13625L23.853 7.54025C23.8995 7.58528 23.9365 7.63921 23.9618 7.69882C23.987 7.75843 24 7.82251 24 7.88725C24 7.95199 23.987 8.01607 23.9618 8.07568C23.9365 8.13529 23.8995 8.18922 23.853 8.23425L17.387 14.5652C17.2919 14.6572 17.1648 14.7086 17.0325 14.7086C16.9002 14.7086 16.7731 14.6572 16.678 14.5652L12.09 10.0722C12.0664 10.0487 12.0344 10.0354 12.001 10.0354C11.9677 10.0354 11.9356 10.0487 11.912 10.0722L7.32302 14.5652C7.22792 14.6572 7.10081 14.7086 6.96852 14.7086C6.83624 14.7086 6.70913 14.6572 6.61402 14.5652L0.147024 8.23425C0.100512 8.18922 0.0635293 8.13529 0.0382723 8.07568C0.0130153 8.01607 0 7.95199 0 7.88725C0 7.82251 0.0130153 7.75843 0.0382723 7.69882C0.0635293 7.63921 0.100512 7.58528 0.147024 7.54025L1.58102 6.13625C1.67613 6.0443 1.80324 5.9929 1.93552 5.9929C2.06781 5.9929 2.19492 6.0443 2.29002 6.13625L6.87902 10.6292C6.92902 10.6772 7.00802 10.6772 7.05702 10.6292L11.646 6.13625C11.7411 6.0443 11.8682 5.9929 12.0005 5.9929C12.1328 5.9929 12.2599 6.0443 12.355 6.13625L16.944 10.6292C16.994 10.6772 17.072 10.6772 17.122 10.6292L21.711 6.13625C21.8057 6.04389 21.9328 5.9922 22.065 5.9922C22.1973 5.9922 22.3243 6.04389 22.419 6.13625Z" fill="var(--fill-0, #5499F5)"/>
</svg>
