<svg preserveAspectRatio="none" width="100%" height="100%" overflow="visible" style="display: block;" viewBox="0 0 18.0001 16.199" fill="none" xmlns="http://www.w3.org/2000/svg">
<path id="Vector" fill-rule="evenodd" clip-rule="evenodd" d="M11.4204 7.67C8.12235 5.956 4.11035 3.735 1.09035 1.925C0.201354 1.31 0.653354 0 1.73035 0H16.6704C17.5034 0 18.0604 0.893 17.6434 1.569C16.6394 3.235 15.1734 5.351 13.9494 7.029C13.2924 7.929 12.2214 8.084 11.4204 7.67ZM6.61035 8.224C9.79935 9.857 14.2664 12.341 17.4404 14.22C18.4244 14.801 18.0304 16.197 16.8854 16.197L8.93435 16.198L1.13435 16.199C0.218354 16.199 -0.251646 15.286 0.137354 14.649C1.45235 12.496 2.92935 10.323 4.15735 8.701C4.70335 7.978 5.81435 7.815 6.61135 8.224" fill="var(--fill-0, #2461ED)"/>
</svg>
