<svg width="8000" height="678" viewBox="0 0 8000 678" fill="none" xmlns="http://www.w3.org/2000/svg">
<path d="M2543.09 668.15H2373.7V216.448L2100.01 668.15H1977.68L1703.99 216.448V668.15H1534.6V9.41797H1762.8L2038.06 473.667L2314.1 9.41797H2543.09V668.15Z" fill="black"/>
<path d="M3251.87 527.777H2857.41L2786.83 668.15H2600.19L2940.54 9.41797H3168.74L3509.09 668.15H3321.66L3251.08 527.777H3251.87ZM3189.13 401.52L3055.82 134.106L2921.72 401.52H3189.92H3189.13Z" fill="black"/>
<path d="M4416.25 9.41797V668.15H4185.7L3737.13 174.101V668.15H3567.74V9.41797H3797.52L4246.87 504.251V9.41797H4416.25Z" fill="black"/>
<path d="M4678.03 668.15H4508.64V9.41797H4678.03V668.15Z" fill="black"/>
<path d="M4939.8 151.359V318.395H5410.32V461.12H4939.8V667.366H4770.41V9.41797H5466.78V151.359H4939.8Z" fill="black"/>
<path d="M5719.98 143.517V276.832H6246.97V399.168H5719.98V532.482H6246.97V666.581H5550.59V9.41797H6246.97V144.301H5719.98V143.517Z" fill="black"/>
<path d="M6485.22 440.723C6485.22 510.517 6541.68 542.669 6755.77 542.669C6933.79 542.669 6987.11 523.064 6987.11 471.307C6987.11 416.413 6949.47 407.002 6736.17 396.807C6449.15 383.476 6335.44 338.776 6335.44 190.562C6335.44 42.347 6482.87 0 6729.89 0C6976.92 0 7128.27 61.9522 7128.27 225.067H6958.88C6958.88 152.92 6886.73 134.883 6710.29 134.883C6544.04 134.883 6504.04 150.567 6504.04 199.972C6504.04 249.377 6543.25 260.356 6735.38 271.335C6994.95 285.45 7155.72 299.566 7155.72 465.817C7155.72 641.479 6989.46 677.553 6745.58 677.553C6475.81 677.553 6315.05 631.285 6315.05 441.507H6484.44L6485.22 440.723Z" fill="black"/>
<path d="M8000 151.359H7680.05V667.366H7510.66V151.359H7190.7V9.41797H7999.22V151.359H8000Z" fill="black"/>
<g clip-path="url(#clip0_1_877)">
<path d="M0.000751895 285.317V666.16L507.791 390.26V9.41748L0.000751895 285.317Z" fill="url(#paint0_linear_1_877)"/>
<path d="M1015.59 538.792V665.74L507.798 390.263V263.316L1015.59 538.792ZM1015.59 284.894V411.841L507.797 136.365V9.41748L1015.59 284.894Z" fill="url(#paint1_linear_1_877)"/>
</g>
<defs>
<linearGradient id="paint0_linear_1_877" x1="507.791" y1="391.053" x2="0.000759885" y2="666.16" gradientUnits="userSpaceOnUse">
<stop stop-color="#0575F3"/>
<stop offset="1"/>
</linearGradient>
<linearGradient id="paint1_linear_1_877" x1="507.797" y1="393.769" x2="1015.59" y2="665.74" gradientUnits="userSpaceOnUse">
<stop stop-color="#FF4601"/>
<stop offset="1"/>
</linearGradient>
<clipPath id="clip0_1_877">
<rect width="1015.58" height="656.742" fill="white" transform="translate(0 9.41748)"/>
</clipPath>
</defs>
</svg>
