<svg width="8000" height="678" viewBox="0 0 8000 678" fill="none" xmlns="http://www.w3.org/2000/svg">
<g clip-path="url(#clip0_1_896)">
<path d="M0 285.482V666.554L508.096 390.489V9.41699L0 285.482Z" fill="white"/>
<path d="M1016.2 285.059L508.103 9.4165V136.44L1016.2 412.082V285.059Z" fill="white"/>
<path d="M1016.2 539.108L508.103 263.466V390.49L1016.2 666.132V539.108Z" fill="white"/>
</g>
<path d="M2543.3 668.122H2373.92V216.439L2100.24 668.122H1977.91L1704.24 216.439V668.122H1534.86V9.41699H1763.05L2038.29 473.647L2314.32 9.41699H2543.3V668.122Z" fill="white"/>
<path d="M3252.05 527.755H2857.61L2787.04 668.122H2600.4L2940.73 9.41699H3168.93L3509.26 668.122H3321.84L3251.27 527.755H3252.05ZM3189.32 401.503L3056.01 134.1L2921.91 401.503H3190.1H3189.32Z" fill="white"/>
<path d="M4416.39 9.41699V668.122H4185.85L3737.3 174.093V668.122H3567.92V9.41699H3797.68L4247.01 504.23V9.41699H4416.39Z" fill="white"/>
<path d="M4678.16 668.122H4508.78V9.41699H4678.16V668.122Z" fill="white"/>
<path d="M4939.91 151.352V318.381H5410.42V461.101H4939.91V667.338H4770.53V9.41699H5466.88V151.352H4939.91Z" fill="white"/>
<path d="M5720.07 143.511V276.82H6247.04V399.151H5720.07V532.46H6247.04V666.554H5550.69V9.41699H6247.04V144.295H5720.07V143.511Z" fill="white"/>
<path d="M6485.27 440.705C6485.27 510.497 6541.73 542.648 6755.81 542.648C6933.82 542.648 6987.14 523.043 6987.14 471.288C6987.14 416.396 6949.5 406.986 6736.21 396.791C6449.2 383.461 6335.5 338.763 6335.5 190.554C6335.5 42.3453 6482.92 0 6729.94 0C6976.95 0 7128.3 61.9497 7128.3 225.058H6958.91C6958.91 152.914 6886.77 134.878 6710.33 134.878C6544.09 134.878 6504.09 150.561 6504.09 199.964C6504.09 249.367 6543.3 260.345 6735.43 271.324C6994.99 285.439 7155.74 299.554 7155.74 465.799C7155.74 641.453 6989.5 677.525 6745.62 677.525C6475.86 677.525 6315.11 631.259 6315.11 441.489H6484.49L6485.27 440.705Z" fill="white"/>
<path d="M8000 151.352H7680.06V667.338H7510.68V151.352H7190.73V9.41699H7999.22V151.352H8000Z" fill="white"/>
<defs>
<clipPath id="clip0_1_896">
<rect width="1016.19" height="657.137" fill="white" transform="translate(0 9.41699)"/>
</clipPath>
</defs>
</svg>
