<svg width="8000" height="678" viewBox="0 0 8000 678" fill="none" xmlns="http://www.w3.org/2000/svg">
<g clip-path="url(#clip0_1_913)">
<path d="M0 285.48V666.552L508.095 390.487V9.41504L0 285.48Z" fill="black"/>
<path d="M1016.2 285.057L508.102 9.41504V136.439L1016.2 412.081V285.057Z" fill="black"/>
<path d="M1016.2 539.106L508.103 263.464V390.488L1016.2 666.13V539.106Z" fill="black"/>
</g>
<path d="M2543.31 668.12H2373.92V216.437L2100.25 668.12H1977.92L1704.24 216.437V668.12H1534.86V9.41504H1763.05L2038.3 473.645L2314.33 9.41504H2543.31V668.12Z" fill="black"/>
<path d="M3252.06 527.753H2857.62L2787.04 668.12H2600.41L2940.74 9.41504H3168.94L3509.27 668.12H3321.85L3251.27 527.753H3252.06ZM3189.32 401.501L3056.01 134.099L2921.92 401.501H3190.11H3189.32Z" fill="black"/>
<path d="M4416.4 9.41504V668.12H4185.85L3737.31 174.091V668.12H3567.92V9.41504H3797.69L4247.02 504.228V9.41504H4416.4Z" fill="black"/>
<path d="M4678.16 668.12H4508.78V9.41504H4678.16V668.12Z" fill="black"/>
<path d="M4939.92 151.35V318.379H5410.42V461.099H4939.92V667.336H4770.53V9.41504H5466.88V151.35H4939.92Z" fill="black"/>
<path d="M5720.07 143.509V276.818H6247.04V399.149H5720.07V532.458H6247.04V666.552H5550.69V9.41504H6247.04V144.293H5720.07V143.509Z" fill="black"/>
<path d="M6485.27 440.705C6485.27 510.496 6541.73 542.648 6755.81 542.648C6933.82 542.648 6987.14 523.043 6987.14 471.288C6987.14 416.396 6949.5 406.986 6736.21 396.791C6449.2 383.461 6335.5 338.763 6335.5 190.554C6335.5 42.3453 6482.92 0 6729.94 0C6976.95 0 7128.29 61.9496 7128.29 225.058H6958.91C6958.91 152.914 6886.77 134.878 6710.33 134.878C6544.09 134.878 6504.09 150.561 6504.09 199.964C6504.09 249.367 6543.3 260.345 6735.42 271.324C6994.99 285.439 7155.74 299.554 7155.74 465.799C7155.74 641.453 6989.5 677.525 6745.62 677.525C6475.86 677.525 6315.11 631.259 6315.11 441.489H6484.49L6485.27 440.705Z" fill="black"/>
<path d="M8000 151.35H7680.06V667.336H7510.68V151.35H7190.73V9.41504H7999.22V151.35H8000Z" fill="black"/>
<defs>
<clipPath id="clip0_1_913">
<rect width="1016.19" height="657.137" fill="white" transform="translate(0 9.41504)"/>
</clipPath>
</defs>
</svg>
