<svg preserveAspectRatio="none" width="100%" height="100%" overflow="visible" style="display: block;" viewBox="0 0 19.62 19.62" fill="none" xmlns="http://www.w3.org/2000/svg">
<path id="Vector" d="M12.51 6.66C11.8935 6.0435 10.8081 5.6151 9.81 5.5881M9.81 5.5881C8.622 5.5557 7.56 6.093 7.56 7.56C7.56 10.26 12.51 8.91 12.51 11.61C12.51 13.1499 11.1924 13.8114 9.81 13.7619M9.81 5.5881V3.96M7.11 12.51C7.6896 13.284 8.7687 13.725 9.81 13.7619M9.81 13.7619V15.66M9.81 18.81C14.7807 18.81 18.81 14.7807 18.81 9.81C18.81 4.8393 14.7807 0.81 9.81 0.81C4.8393 0.81 0.81 4.8393 0.81 9.81C0.81 14.7807 4.8393 18.81 9.81 18.81Z" stroke="var(--stroke-0, black)" stroke-width="1.62" stroke-linecap="square"/>
</svg>
