<svg preserveAspectRatio="none" width="100%" height="100%" overflow="visible" style="display: block;" viewBox="0 0 20 20" fill="none" xmlns="http://www.w3.org/2000/svg">
<path id="Vector" d="M10 0C8.02219 0 6.08879 0.586489 4.4443 1.6853C2.79981 2.78412 1.51809 4.3459 0.761209 6.17316C0.00433318 8.00042 -0.193701 10.0111 0.192152 11.9509C0.578004 13.8907 1.53041 15.6725 2.92894 17.0711C4.32746 18.4696 6.10929 19.422 8.0491 19.8078C9.98891 20.1937 11.9996 19.9957 13.8268 19.2388C15.6541 18.4819 17.2159 17.2002 18.3147 15.5557C19.4135 13.9112 20 11.9778 20 10C19.9976 7.34856 18.9433 4.80639 17.0685 2.93153C15.1936 1.05668 12.6514 0.0023537 10 0ZM10 1.60444C12.0873 1.6069 14.0989 2.38595 15.6434 3.78995C17.1879 5.19395 18.1547 7.12243 18.3556 9.2H13.4667C13.2806 8.42299 12.8382 7.7313 12.2109 7.23647C11.5836 6.74165 10.8079 6.47254 10.0089 6.47254C9.20991 6.47254 8.43421 6.74165 7.80689 7.23647C7.17957 7.7313 6.7372 8.42299 6.55111 9.2H1.66223C1.86281 7.12547 2.82706 5.19948 4.36779 3.7959C5.90852 2.39233 7.91582 1.6113 10 1.60444ZM11.9467 10C11.9467 10.385 11.8325 10.7614 11.6186 11.0815C11.4047 11.4016 11.1007 11.6511 10.745 11.7985C10.3893 11.9458 9.99784 11.9844 9.62023 11.9093C9.24261 11.8341 8.89575 11.6487 8.6235 11.3765C8.35126 11.1043 8.16585 10.7574 8.09074 10.3798C8.01563 10.0022 8.05418 9.61075 8.20152 9.25504C8.34886 8.89933 8.59836 8.59531 8.91849 8.3814C9.23862 8.1675 9.61499 8.05333 10 8.05333C10.5163 8.05333 11.0114 8.25843 11.3765 8.6235C11.7416 8.98857 11.9467 9.48371 11.9467 10ZM10 18.3956C7.91275 18.3931 5.90108 17.6141 4.3566 16.21C2.81212 14.806 1.84534 12.8776 1.64445 10.8H6.53334C6.71942 11.577 7.16179 12.2687 7.78911 12.7635C8.41643 13.2583 9.19213 13.5275 9.99111 13.5275C10.7901 13.5275 11.5658 13.2583 12.1931 12.7635C12.8204 12.2687 13.2628 11.577 13.4489 10.8H18.3378C18.1372 12.8745 17.1729 14.8005 15.6322 16.2041C14.0915 17.6077 12.0842 18.3887 10 18.3956Z" fill="var(--fill-0, black)"/>
</svg>
