<svg width="24" height="24" viewBox="0 0 17 20.9767" fill="none" xmlns="http://www.w3.org/2000/svg">
<path id="Vector" d="M11.5 5.53921C11.5 5.53921 12.6419 4.97671 8.5 4.97671C7.01664 4.97671 5.5666 5.41658 4.33323 6.24069C3.09986 7.0648 2.13856 8.23614 1.57091 9.60659C1.00325 10.977 0.854725 12.485 1.14411 13.9399C1.4335 15.3947 2.14781 16.7311 3.1967 17.78C4.2456 18.8289 5.58197 19.5432 7.03683 19.8326C8.49168 20.122 9.99968 19.9735 11.3701 19.4058C12.7406 18.8382 13.9119 17.8769 14.736 16.6435C15.5601 15.4101 16 13.9601 16 12.4767M8.5 1.41421L12.25 5.16421L8.5 8.91421" stroke="black" stroke-width="2" stroke-miterlimit="10" stroke-linecap="square"/>
</svg>
